<?xml version="1.0" encoding="UTF-8"?><svg id="b" xmlns="http://www.w3.org/2000/svg" viewBox="0 0 13.19 13.68"><g id="c"><path d="M1.74,5.49c.2-.1.19-.23.17-.34-.2-1.24.15-2.4.49-3.56.17-.56.45-1.04.94-1.38.19-.13.41-.3.64-.14.23.16.25.43.21.69-.05.3-.24.58-.19.95.27-.1.38-.34.56-.5.58-.5,1.18-.99,2.01-.95.28.01.55.09.67.39.11.3-.04.53-.25.73-.47.47-1.03.85-1.43,1.38-.37.49-.46,1.04-.37,1.67.23-.35.45-.71.69-1.06.58-.83,1.26-.96,2.11-.39.32.22.64.36,1.02.37.33.01.64.09.64.52,0,.17.12.22.26.27.2.08.32.26.3.46-.05.76.4,1.3.83,1.82.99,1.2.91,2.46.33,3.79-.33.77-.8,1.41-1.37,2.02-1.8,1.92-4.66,1.9-6.47-.01-1.12-1.18-1.92-2.58-2.67-3.98C.22,7.04-.1,5.65.03,4.22c.03-.31,0-.67.44-.7.4-.03.69.16.8.54.12.41.21.83.32,1.25.02.07.09.12.15.18ZM8.76,8.14c.06-1.11-.04-2.18.14-3.22h-1.69c-.05.71-.1,1.37-.14,2.03-.01.16-.03.33.12.42.47.29.91.66,1.57.77ZM4.79,9.37c1.16.09,2.3.28,3.47.64-.43-.71-2.74-1.14-3.47-.64Z"/><path d="M10.59,3.07c.35-.67.87-.82,1.4-.94.1-.02.2.01.25.11.05.1.04.22-.04.27-.45.28-.89.61-1.61.56Z"/><path d="M11.26,3.38c.64-.21,1.14-.38,1.65-.54.09-.03.19,0,.25.1.06.1.03.18-.03.27-.23.31-1.31.48-1.86.17Z"/><path d="M10.09,2.4c-.11-.59.28-.95.47-1.38.04-.09.15-.12.26-.06.1.05.14.16.1.25-.19.43-.31.91-.82,1.19Z"/></g></svg>