<?xml version="1.0" encoding="UTF-8"?><svg id="b" xmlns="http://www.w3.org/2000/svg" viewBox="0 0 128 132.74"><g id="c"><path d="M16.9,53.28c1.94-.99,1.86-2.22,1.69-3.3-1.97-12.03,1.42-23.31,4.76-34.59,1.6-5.42,4.39-10.11,9.12-13.38,1.84-1.27,3.95-2.93,6.24-1.38,2.27,1.54,2.42,4.16,2.03,6.69-.46,2.95-2.29,5.62-1.81,9.23,2.57-.99,3.66-3.32,5.41-4.82,5.68-4.84,11.43-9.6,19.51-9.24,2.68.12,5.38.89,6.46,3.83,1.08,2.92-.38,5.11-2.38,7.08-4.59,4.52-9.95,8.2-13.92,13.42-3.63,4.77-4.42,10.1-3.59,16.17,2.23-3.42,4.35-6.91,6.7-10.24,5.66-8.05,12.22-9.36,20.46-3.77,3.11,2.11,6.19,3.45,9.94,3.6,3.2.13,6.17.9,6.17,5.08,0,1.69,1.19,2.11,2.49,2.62,1.97.78,3.06,2.5,2.92,4.5-.52,7.38,3.85,12.62,8.02,17.67,9.64,11.65,8.87,23.84,3.23,36.78-3.24,7.44-7.79,13.72-13.32,19.62-17.44,18.63-45.22,18.48-62.75-.12-10.83-11.49-18.68-25-25.9-38.62C2.11,68.28-1,54.86.28,41c.28-3.01-.08-6.48,4.23-6.83,3.89-.32,6.67,1.54,7.8,5.27,1.21,3.98,2.05,8.08,3.15,12.09.18.64.9,1.12,1.43,1.75ZM84.97,79.03c.58-10.75-.42-21.2,1.35-31.26h-16.36c-.49,6.92-.94,13.32-1.39,19.72-.1,1.51-.34,3.15,1.2,4.1,4.6,2.84,8.86,6.39,15.19,7.44ZM46.45,90.96c11.27.91,22.29,2.72,33.66,6.17-4.17-6.89-26.6-11.08-33.66-6.17Z"/><path d="M102.78,29.77c3.39-6.52,8.41-7.94,13.57-9.11.95-.22,1.9.11,2.4,1.08.49.95.4,2.14-.37,2.61-4.38,2.67-8.6,5.95-15.6,5.42Z"/><path d="M109.29,32.81c6.24-2.07,11.09-3.73,15.99-5.27.88-.28,1.86.08,2.41,1.01.56.94.28,1.76-.32,2.57-2.2,3.01-12.7,4.67-18.09,1.69Z"/><path d="M97.93,23.32c-1.09-5.75,2.72-9.24,4.54-13.36.39-.87,1.49-1.14,2.48-.62.98.52,1.32,1.52.93,2.4-1.85,4.17-3.01,8.85-7.95,11.57Z"/></g></svg>